<svg width="24" height="24" viewBox="0 0 24 24" fill="none" xmlns="http://www.w3.org/2000/svg">
<path d="M12.0858 13.0858L12.7929 12.3787L12.0858 13.0858ZM20.0816 14.8037C20.2493 14.2775 19.9587 13.7149 19.4325 13.5472C18.9063 13.3795 18.3438 13.6701 18.1761 14.1963L20.0816 14.8037ZM17.6052 8.48923C17.8754 8.97091 18.4849 9.14235 18.9666 8.87216C19.4482 8.60196 19.6197 7.99245 19.3495 7.51077L17.6052 8.48923ZM16.1212 9L15.4033 8.30385C15.1237 8.59221 15.0437 9.01988 15.2003 9.38978C15.3569 9.75967 15.7195 10 16.1212 10V9ZM20 9V10C20.5523 10 21 9.55228 21 9H20ZM20 5H21C21 4.59274 20.753 4.22616 20.3756 4.0732C19.9981 3.92025 19.5656 4.01148 19.2821 4.30385L20 5ZM17.2519 8.0785C16.927 8.52515 17.0258 9.15057 17.4724 9.4754C17.9191 9.80024 18.5445 9.70149 18.8693 9.25484L17.2519 8.0785ZM20.0815 7.58817C20.4063 7.14152 20.3075 6.5161 19.8609 6.19126C19.4142 5.86643 18.7888 5.96518 18.464 6.41183L20.0815 7.58817ZM10.5 8V11.672H12.5V8H10.5ZM11.3787 13.7929L13.7929 16.2071L15.2071 14.7929L12.7929 12.3787L11.3787 13.7929ZM10.5 11.672C10.5 12.4679 10.8162 13.2305 11.3787 13.7929L12.7929 12.3787C12.6052 12.191 12.5 11.937 12.5 11.672H10.5ZM11.7576 3C6.89212 3 3 7.05867 3 12H5C5 8.10478 8.05425 5 11.7576 5V3ZM3 12C3 16.9413 6.89212 21 11.7576 21V19C8.05425 19 5 15.8952 5 12H3ZM11.7576 21C15.66 21 18.9406 18.3837 20.0816 14.8037L18.1761 14.1963C17.2811 17.0042 14.7307 19 11.7576 19V21ZM19.3495 7.51077C19.1613 7.17527 18.9526 6.85338 18.7252 6.5469L17.1191 7.73868C17.296 7.97715 17.4585 8.2278 17.6052 8.48923L19.3495 7.51077ZM18.7252 6.5469C17.1316 4.3992 14.6078 3 11.7576 3V5C13.9333 5 15.8774 6.06529 17.1191 7.73868L18.7252 6.5469ZM16.1212 10H20V8H16.1212V10ZM21 9V5H19V9H21ZM16.8391 9.69615L18.64 7.83893L17.2042 6.44664L15.4033 8.30385L16.8391 9.69615ZM18.64 7.83893L20.7179 5.69615L19.2821 4.30385L17.2042 6.44664L18.64 7.83893ZM18.8693 9.25484L20.0815 7.58817L18.464 6.41183L17.2519 8.0785L18.8693 9.25484Z" fill="black"/>
</svg>
