<svg width="433" height="133" viewBox="0 0 433 133" fill="none" xmlns="http://www.w3.org/2000/svg">
<g clip-path="url(#clip0_52_63)">
<path d="M167.04 88.72C162.88 88.72 159.2 87.8 156 85.96C152.84 84.08 150.34 81.52 148.5 78.28C146.7 75 145.8 71.24 145.8 67C145.8 62.76 146.7 59.02 148.5 55.78C150.34 52.5 152.84 49.94 156 48.1C159.2 46.22 162.88 45.28 167.04 45.28C170.08 45.28 172.86 45.82 175.38 46.9C177.94 47.94 180.14 49.42 181.98 51.34C183.86 53.26 185.3 55.48 186.3 58L177.24 61.06C176.64 59.66 175.82 58.44 174.78 57.4C173.78 56.36 172.62 55.56 171.3 55C170.02 54.44 168.6 54.16 167.04 54.16C164.84 54.16 162.88 54.7 161.16 55.78C159.44 56.86 158.1 58.38 157.14 60.34C156.18 62.26 155.7 64.48 155.7 67C155.7 69.52 156.18 71.76 157.14 73.72C158.14 75.64 159.5 77.16 161.22 78.28C162.98 79.36 164.98 79.9 167.22 79.9C168.86 79.9 170.32 79.6 171.6 79C172.88 78.4 173.98 77.56 174.9 76.48C175.86 75.4 176.68 74.16 177.36 72.76L186.42 75.82C185.46 78.38 184.04 80.64 182.16 82.6C180.28 84.52 178.06 86.02 175.5 87.1C172.94 88.18 170.12 88.72 167.04 88.72ZM197.554 72.46C197.554 69.22 198.194 66.52 199.474 64.36C200.794 62.2 202.434 60.58 204.394 59.5C206.394 58.42 208.474 57.88 210.634 57.88V67C208.794 67 207.054 67.2 205.414 67.6C203.814 68 202.514 68.62 201.514 69.46C200.514 70.26 200.014 71.3 200.014 72.58L197.554 72.46ZM190.654 88V58H200.014V88H190.654ZM232.38 88L232.08 81.52V73.06C232.08 71.46 231.94 70.06 231.66 68.86C231.42 67.66 230.92 66.74 230.16 66.1C229.44 65.42 228.38 65.08 226.98 65.08C225.86 65.08 224.88 65.34 224.04 65.86C223.2 66.38 222.48 67.08 221.88 67.96L213.66 65.26C214.38 63.78 215.32 62.44 216.48 61.24C217.68 60.04 219.14 59.08 220.86 58.36C222.58 57.64 224.58 57.28 226.86 57.28C229.98 57.28 232.62 57.86 234.78 59.02C236.94 60.18 238.56 61.8 239.64 63.88C240.72 65.96 241.26 68.42 241.26 71.26L241.14 88H232.38ZM224.16 88.72C220.64 88.72 217.9 87.94 215.94 86.38C213.98 84.78 213 82.5 213 79.54C213 76.38 214.02 74.02 216.06 72.46C218.1 70.9 220.96 70.12 224.64 70.12H232.86V76.18H228.12C226.16 76.18 224.74 76.46 223.86 77.02C222.98 77.54 222.54 78.3 222.54 79.3C222.54 80.02 222.86 80.6 223.5 81.04C224.18 81.44 225.1 81.64 226.26 81.64C227.42 81.64 228.42 81.4 229.26 80.92C230.14 80.4 230.82 79.72 231.3 78.88C231.82 78.04 232.08 77.14 232.08 76.18H234.48C234.48 80.14 233.62 83.22 231.9 85.42C230.22 87.62 227.64 88.72 224.16 88.72ZM246.962 88V46H256.322V82.42L255.842 88H246.962ZM264.842 88.72C262.362 88.72 260.282 88.1 258.602 86.86C256.922 85.58 255.662 83.76 254.822 81.4C253.982 79.04 253.562 76.24 253.562 73C253.562 69.72 253.982 66.92 254.822 64.6C255.662 62.24 256.922 60.44 258.602 59.2C260.282 57.92 262.362 57.28 264.842 57.28C267.642 57.28 270.062 57.92 272.102 59.2C274.142 60.44 275.702 62.24 276.782 64.6C277.862 66.92 278.402 69.72 278.402 73C278.402 76.24 277.862 79.04 276.782 81.4C275.702 83.76 274.142 85.58 272.102 86.86C270.062 88.1 267.642 88.72 264.842 88.72ZM262.442 80.08C263.642 80.08 264.702 79.78 265.622 79.18C266.542 78.58 267.282 77.76 267.842 76.72C268.402 75.64 268.682 74.4 268.682 73C268.682 71.6 268.422 70.38 267.902 69.34C267.382 68.26 266.642 67.42 265.682 66.82C264.762 66.22 263.702 65.92 262.502 65.92C261.302 65.92 260.222 66.22 259.262 66.82C258.342 67.42 257.622 68.26 257.102 69.34C256.582 70.42 256.322 71.64 256.322 73C256.322 74.4 256.582 75.64 257.102 76.72C257.622 77.76 258.342 78.58 259.262 79.18C260.182 79.78 261.242 80.08 262.442 80.08ZM300.759 88L300.459 81.52V73.06C300.459 71.46 300.319 70.06 300.039 68.86C299.799 67.66 299.299 66.74 298.539 66.1C297.819 65.42 296.759 65.08 295.359 65.08C294.239 65.08 293.259 65.34 292.419 65.86C291.579 66.38 290.859 67.08 290.259 67.96L282.039 65.26C282.759 63.78 283.699 62.44 284.859 61.24C286.059 60.04 287.519 59.08 289.239 58.36C290.959 57.64 292.959 57.28 295.239 57.28C298.359 57.28 300.999 57.86 303.159 59.02C305.319 60.18 306.939 61.8 308.019 63.88C309.099 65.96 309.639 68.42 309.639 71.26L309.519 88H300.759ZM292.539 88.72C289.019 88.72 286.279 87.94 284.319 86.38C282.359 84.78 281.379 82.5 281.379 79.54C281.379 76.38 282.399 74.02 284.439 72.46C286.479 70.9 289.339 70.12 293.019 70.12H301.239V76.18H296.499C294.539 76.18 293.119 76.46 292.239 77.02C291.359 77.54 290.919 78.3 290.919 79.3C290.919 80.02 291.239 80.6 291.879 81.04C292.559 81.44 293.479 81.64 294.639 81.64C295.799 81.64 296.799 81.4 297.639 80.92C298.519 80.4 299.199 79.72 299.679 78.88C300.199 78.04 300.459 77.14 300.459 76.18H302.859C302.859 80.14 301.999 83.22 300.279 85.42C298.599 87.62 296.019 88.72 292.539 88.72ZM315.341 88V58H324.161L324.701 63.52V88H315.341ZM334.661 88V72.64H344.021V88H334.661ZM334.661 72.64C334.661 71.04 334.481 69.78 334.121 68.86C333.761 67.9 333.241 67.2 332.561 66.76C331.921 66.32 331.121 66.08 330.161 66.04C328.361 66 327.001 66.5 326.081 67.54C325.161 68.54 324.701 70.08 324.701 72.16H321.881C321.881 69 322.361 66.32 323.321 64.12C324.281 61.88 325.581 60.18 327.221 59.02C328.901 57.86 330.841 57.28 333.041 57.28C335.441 57.28 337.461 57.78 339.101 58.78C340.741 59.74 341.961 61.22 342.761 63.22C343.601 65.22 344.021 67.78 344.021 70.9V72.64H334.661ZM358.616 81.34L353.096 74.86L368.156 58H379.136L358.616 81.34ZM349.736 88V46H359.096V88H349.736ZM369.056 88L359.756 74.74L365.876 68.32L379.916 88H369.056Z" fill="#006BD6"/>
<path d="M66 72.3333C63.738 72.1385 61.5433 71.4644 59.5619 70.3559C57.5805 69.2475 55.8577 67.73 54.5079 65.9044C53.1581 64.0788 52.2124 61.9868 51.7334 59.7675C51.2545 57.5482 51.2534 55.2524 51.7302 53.0326C52.2069 50.8128 53.1506 48.7199 54.4986 46.893C55.8466 45.066 57.5679 43.5469 59.5483 42.4365C61.5286 41.3261 63.7226 40.6499 65.9844 40.4528C68.2462 40.2557 70.5241 40.5422 72.6667 41.2933L67.3333 48.3333L72.6667 53.6667C72.6667 53.6667 64.6667 56.3333 51.3333 56.3333M90 72.3333C92.262 72.1385 94.4567 71.4644 96.4381 70.3559C98.4195 69.2475 100.142 67.73 101.492 65.9044C102.842 64.0788 103.788 61.9868 104.267 59.7675C104.745 57.5482 104.747 55.2524 104.27 53.0326C103.793 50.8128 102.849 48.7199 101.501 46.893C100.153 45.066 98.4321 43.5469 96.4518 42.4365C94.4714 41.3261 92.2774 40.6499 90.0156 40.4528C87.7538 40.2557 85.4759 40.5422 83.3333 41.2933L88.6667 48.3333L83.3333 53.6667C83.3333 53.6667 91.3333 56.3333 104.667 56.3333M72.6667 69.6667V64.3333M83.3333 69.6667V64.3333" stroke="#006BD6" stroke-width="6" stroke-linecap="round" stroke-linejoin="round"/>
<path d="M78 93.6667C88.3093 93.6667 96.6667 88.2941 96.6667 81.6667C96.6667 75.0393 88.3093 69.6667 78 69.6667C67.6907 69.6667 59.3333 75.0393 59.3333 81.6667C59.3333 88.2941 67.6907 93.6667 78 93.6667Z" stroke="#006BD6" stroke-width="6" stroke-linecap="round" stroke-linejoin="round"/>
<path d="M51.3333 77.6667C56.6667 77.6667 59.3333 80.3334 59.3333 80.3334M51.3333 93.6667C51.3333 89.1334 54.8 85.6667 59.3333 85.6667M96.6667 80.3334C96.6667 80.3334 99.3333 77.6667 104.667 77.6667M96.6667 85.6667C101.2 85.6667 104.667 89.1334 104.667 93.6667" stroke="#006BD6" stroke-width="6" stroke-linecap="round" stroke-linejoin="round"/>
</g>
<defs>
<clipPath id="clip0_52_63">
<rect width="433" height="133" fill="white"/>
</clipPath>
</defs>
</svg>
